<mxfile host="www.draw.io" modified="2020-01-23T02:37:43.864Z" agent="Mozilla/5.0 (Macintosh; Intel Mac OS X 10_15_1) AppleWebKit/537.36 (KHTML, like Gecko) Chrome/78.0.3904.108 Safari/537.36" etag="PX8aYjyiqmt84QI5Gzdr" version="12.5.6" type="github">
  <diagram name="Page-1" id="97a40813-6b03-0c74-37c1-0168de264b11">
    <mxGraphModel dx="1186" dy="764" grid="1" gridSize="10" guides="1" tooltips="1" connect="1" arrows="1" fold="1" page="1" pageScale="1" pageWidth="1100" pageHeight="850" background="#ffffff" math="0" shadow="0">
      <root>
        <mxCell id="0"/>
        <mxCell id="1" parent="0"/>
        <mxCell id="17" value="李虎" style="rounded=0;whiteSpace=wrap;html=1;fontSize=19;fillColor=#dae8fc;strokeColor=#6c8ebf;" parent="1" vertex="1">
          <mxGeometry x="1520" y="440" width="120" height="40" as="geometry"/>
        </mxCell>
        <mxCell id="19" value="元皇帝李昞" style="rounded=0;whiteSpace=wrap;html=1;fontSize=19;fillColor=#dae8fc;strokeColor=#6c8ebf;" parent="1" vertex="1">
          <mxGeometry x="1520" y="520" width="120" height="40" as="geometry"/>
        </mxCell>
        <mxCell id="I-6GhlOeTkknmJ2-8OJ1-19" value="" style="endArrow=classic;html=1;exitX=0.5;exitY=1;exitDx=0;exitDy=0;entryX=0.5;entryY=0;entryDx=0;entryDy=0;" parent="1" source="17" target="19" edge="1">
          <mxGeometry width="50" height="50" relative="1" as="geometry">
            <mxPoint x="1740" y="520" as="sourcePoint"/>
            <mxPoint x="1790" y="470" as="targetPoint"/>
          </mxGeometry>
        </mxCell>
        <mxCell id="I-6GhlOeTkknmJ2-8OJ1-59" value="" style="edgeStyle=elbowEdgeStyle;rounded=0;orthogonalLoop=1;jettySize=auto;elbow=vertical;html=1;endArrow=classic;endFill=1;exitX=0.5;exitY=0;exitDx=0;exitDy=0;" parent="1" source="I-6GhlOeTkknmJ2-8OJ1-20" target="I-6GhlOeTkknmJ2-8OJ1-58" edge="1">
          <mxGeometry relative="1" as="geometry">
            <mxPoint x="1100" y="430" as="sourcePoint"/>
            <Array as="points">
              <mxPoint x="720" y="400"/>
            </Array>
          </mxGeometry>
        </mxCell>
        <mxCell id="I-6GhlOeTkknmJ2-8OJ1-61" value="" style="edgeStyle=elbowEdgeStyle;rounded=0;orthogonalLoop=1;jettySize=auto;elbow=vertical;html=1;endArrow=classic;endFill=1;" parent="1" source="I-6GhlOeTkknmJ2-8OJ1-20" target="I-6GhlOeTkknmJ2-8OJ1-60" edge="1">
          <mxGeometry relative="1" as="geometry"/>
        </mxCell>
        <mxCell id="I-6GhlOeTkknmJ2-8OJ1-20" value="&lt;font color=&quot;#3333ff&quot;&gt;孤独信&lt;/font&gt;" style="rounded=0;whiteSpace=wrap;html=1;fontSize=19;fillColor=#f8cecc;strokeColor=#b85450;" parent="1" vertex="1">
          <mxGeometry x="1040" y="440" width="120" height="40" as="geometry"/>
        </mxCell>
        <mxCell id="I-6GhlOeTkknmJ2-8OJ1-60" value="七女" style="rounded=0;whiteSpace=wrap;html=1;fontSize=19;fillColor=#f8cecc;strokeColor=#b85450;" parent="1" vertex="1">
          <mxGeometry x="1040" y="520" width="120" height="40" as="geometry"/>
        </mxCell>
        <mxCell id="I-6GhlOeTkknmJ2-8OJ1-58" value="长女" style="rounded=0;whiteSpace=wrap;html=1;fontSize=19;fillColor=#f8cecc;strokeColor=#b85450;" parent="1" vertex="1">
          <mxGeometry x="280" y="520" width="120" height="40" as="geometry"/>
        </mxCell>
        <mxCell id="I-6GhlOeTkknmJ2-8OJ1-62" value="&lt;font style=&quot;font-size: 16px&quot; color=&quot;#ff0000&quot;&gt;北周明帝宇文毓&lt;/font&gt;" style="rounded=0;whiteSpace=wrap;html=1;fontSize=19;fillColor=#fff2cc;strokeColor=#d6b656;" parent="1" vertex="1">
          <mxGeometry x="441" y="520" width="120" height="40" as="geometry"/>
        </mxCell>
        <mxCell id="I-6GhlOeTkknmJ2-8OJ1-21" value="四女" style="rounded=0;whiteSpace=wrap;html=1;fontSize=19;fillColor=#f8cecc;strokeColor=#b85450;" parent="1" vertex="1">
          <mxGeometry x="1360" y="520" width="120" height="40" as="geometry"/>
        </mxCell>
        <mxCell id="I-6GhlOeTkknmJ2-8OJ1-22" value="" style="endArrow=classic;html=1;entryX=0.5;entryY=0;entryDx=0;entryDy=0;edgeStyle=elbowEdgeStyle;elbow=vertical;rounded=0;" parent="1" target="I-6GhlOeTkknmJ2-8OJ1-21" edge="1">
          <mxGeometry width="50" height="50" relative="1" as="geometry">
            <mxPoint x="1100" y="440" as="sourcePoint"/>
            <mxPoint x="70" y="470" as="targetPoint"/>
            <Array as="points">
              <mxPoint x="1260" y="400"/>
            </Array>
          </mxGeometry>
        </mxCell>
        <mxCell id="I-6GhlOeTkknmJ2-8OJ1-24" value="" style="endArrow=classic;html=1;exitX=0.5;exitY=1;exitDx=0;exitDy=0;entryX=0.5;entryY=0;entryDx=0;entryDy=0;edgeStyle=elbowEdgeStyle;elbow=vertical;rounded=0;" parent="1" source="19" target="I-6GhlOeTkknmJ2-8OJ1-54" edge="1">
          <mxGeometry width="50" height="50" relative="1" as="geometry">
            <mxPoint x="1740" y="690" as="sourcePoint"/>
            <mxPoint x="1820" y="600" as="targetPoint"/>
          </mxGeometry>
        </mxCell>
        <mxCell id="I-6GhlOeTkknmJ2-8OJ1-38" value="李建成" style="rounded=0;whiteSpace=wrap;html=1;fontSize=19;fillColor=#dae8fc;strokeColor=#6c8ebf;" parent="1" vertex="1">
          <mxGeometry x="759" y="720" width="120" height="40" as="geometry"/>
        </mxCell>
        <mxCell id="I-6GhlOeTkknmJ2-8OJ1-54" value="李渊" style="rounded=0;whiteSpace=wrap;html=1;fontSize=19;fillColor=#dae8fc;strokeColor=#6c8ebf;fontColor=#FF0000;" parent="1" vertex="1">
          <mxGeometry x="1440" y="600" width="120" height="40" as="geometry"/>
        </mxCell>
        <mxCell id="I-6GhlOeTkknmJ2-8OJ1-26" value="" style="endArrow=classic;html=1;exitX=0.5;exitY=1;exitDx=0;exitDy=0;entryX=0.5;entryY=0;entryDx=0;entryDy=0;edgeStyle=elbowEdgeStyle;elbow=vertical;rounded=0;" parent="1" source="I-6GhlOeTkknmJ2-8OJ1-21" target="I-6GhlOeTkknmJ2-8OJ1-54" edge="1">
          <mxGeometry width="50" height="50" relative="1" as="geometry">
            <mxPoint x="1750" y="570" as="sourcePoint"/>
            <mxPoint x="1820" y="600" as="targetPoint"/>
          </mxGeometry>
        </mxCell>
        <mxCell id="I-6GhlOeTkknmJ2-8OJ1-27" value="&lt;font color=&quot;#3333ff&quot;&gt;窦毅&lt;/font&gt;" style="rounded=0;whiteSpace=wrap;html=1;fontSize=19;" parent="1" vertex="1">
          <mxGeometry x="600" y="520" width="81" height="40" as="geometry"/>
        </mxCell>
        <mxCell id="I-6GhlOeTkknmJ2-8OJ1-28" value="宇文泰" style="rounded=0;whiteSpace=wrap;html=1;fontSize=19;fillColor=#fff2cc;strokeColor=#d6b656;" parent="1" vertex="1">
          <mxGeometry x="639" y="440" width="120" height="40" as="geometry"/>
        </mxCell>
        <mxCell id="I-6GhlOeTkknmJ2-8OJ1-29" value="襄阳长公主" style="rounded=0;whiteSpace=wrap;html=1;fontSize=19;fillColor=#fff2cc;strokeColor=#d6b656;" parent="1" vertex="1">
          <mxGeometry x="721" y="520" width="120" height="40" as="geometry"/>
        </mxCell>
        <mxCell id="I-6GhlOeTkknmJ2-8OJ1-30" value="" style="endArrow=classic;html=1;exitX=0.5;exitY=1;exitDx=0;exitDy=0;entryX=0.5;entryY=0;entryDx=0;entryDy=0;edgeStyle=elbowEdgeStyle;elbow=vertical;rounded=0;" parent="1" source="I-6GhlOeTkknmJ2-8OJ1-28" target="I-6GhlOeTkknmJ2-8OJ1-29" edge="1">
          <mxGeometry width="50" height="50" relative="1" as="geometry">
            <mxPoint x="781" y="480" as="sourcePoint"/>
            <mxPoint x="831" y="470" as="targetPoint"/>
          </mxGeometry>
        </mxCell>
        <mxCell id="I-6GhlOeTkknmJ2-8OJ1-33" value="" style="endArrow=classic;html=1;entryX=0.5;entryY=0;entryDx=0;entryDy=0;edgeStyle=elbowEdgeStyle;elbow=vertical;rounded=0;" parent="1" target="I-6GhlOeTkknmJ2-8OJ1-34" edge="1">
          <mxGeometry width="50" height="50" relative="1" as="geometry">
            <mxPoint x="621" y="560" as="sourcePoint"/>
            <mxPoint x="671" y="640" as="targetPoint"/>
          </mxGeometry>
        </mxCell>
        <mxCell id="I-6GhlOeTkknmJ2-8OJ1-34" value="&lt;font color=&quot;#3333ff&quot;&gt;太穆皇后&lt;/font&gt;" style="rounded=0;whiteSpace=wrap;html=1;fontSize=19;fillColor=#fff2cc;strokeColor=#d6b656;" parent="1" vertex="1">
          <mxGeometry x="641" y="600" width="120" height="40" as="geometry"/>
        </mxCell>
        <mxCell id="I-6GhlOeTkknmJ2-8OJ1-35" value="" style="endArrow=classic;html=1;exitX=0.5;exitY=1;exitDx=0;exitDy=0;entryX=0.5;entryY=0;entryDx=0;entryDy=0;edgeStyle=elbowEdgeStyle;elbow=vertical;rounded=0;" parent="1" target="I-6GhlOeTkknmJ2-8OJ1-34" edge="1">
          <mxGeometry width="50" height="50" relative="1" as="geometry">
            <mxPoint x="781" y="560" as="sourcePoint"/>
            <mxPoint x="711" y="610" as="targetPoint"/>
          </mxGeometry>
        </mxCell>
        <mxCell id="I-6GhlOeTkknmJ2-8OJ1-40" value="宇文邕" style="rounded=0;whiteSpace=wrap;html=1;fontSize=19;fillColor=#fff2cc;strokeColor=#d6b656;" parent="1" vertex="1">
          <mxGeometry x="881" y="520" width="120" height="40" as="geometry"/>
        </mxCell>
        <mxCell id="I-6GhlOeTkknmJ2-8OJ1-41" value="突厥皇后" style="rounded=0;whiteSpace=wrap;html=1;fontSize=19;" parent="1" vertex="1">
          <mxGeometry x="881" y="600" width="120" height="40" as="geometry"/>
        </mxCell>
        <mxCell id="I-6GhlOeTkknmJ2-8OJ1-42" value="" style="endArrow=classic;html=1;edgeStyle=elbowEdgeStyle;elbow=vertical;rounded=0;exitX=0.5;exitY=1;exitDx=0;exitDy=0;" parent="1" source="I-6GhlOeTkknmJ2-8OJ1-28" edge="1">
          <mxGeometry width="50" height="50" relative="1" as="geometry">
            <mxPoint x="861" y="480" as="sourcePoint"/>
            <mxPoint x="941" y="520" as="targetPoint"/>
          </mxGeometry>
        </mxCell>
        <mxCell id="I-6GhlOeTkknmJ2-8OJ1-43" value="" style="endArrow=none;html=1;entryX=0.5;entryY=0;entryDx=0;entryDy=0;exitX=0.5;exitY=1;exitDx=0;exitDy=0;" parent="1" source="I-6GhlOeTkknmJ2-8OJ1-40" target="I-6GhlOeTkknmJ2-8OJ1-41" edge="1">
          <mxGeometry width="50" height="50" relative="1" as="geometry">
            <mxPoint x="231" y="830" as="sourcePoint"/>
            <mxPoint x="281" y="780" as="targetPoint"/>
          </mxGeometry>
        </mxCell>
        <mxCell id="I-6GhlOeTkknmJ2-8OJ1-102" value="" style="edgeStyle=orthogonalEdgeStyle;rounded=0;orthogonalLoop=1;jettySize=auto;html=1;endArrow=classic;endFill=1;fontColor=#000000;entryX=0.5;entryY=0;entryDx=0;entryDy=0;exitX=0.5;exitY=1;exitDx=0;exitDy=0;" parent="1" source="I-6GhlOeTkknmJ2-8OJ1-45" target="I-6GhlOeTkknmJ2-8OJ1-99" edge="1">
          <mxGeometry relative="1" as="geometry"/>
        </mxCell>
        <mxCell id="I-6GhlOeTkknmJ2-8OJ1-45" value="&lt;font color=&quot;#ff0000&quot;&gt;李世民&lt;/font&gt;" style="rounded=0;whiteSpace=wrap;html=1;fontSize=19;fillColor=#dae8fc;strokeColor=#6c8ebf;" parent="1" vertex="1">
          <mxGeometry x="959" y="720" width="120" height="40" as="geometry"/>
        </mxCell>
        <mxCell id="I-6GhlOeTkknmJ2-8OJ1-95" value="&lt;font&gt;李承乾&lt;br&gt;&lt;/font&gt;" style="rounded=0;whiteSpace=wrap;html=1;fontSize=19;fillColor=#dae8fc;strokeColor=#6c8ebf;fontColor=#000000;" parent="1" vertex="1">
          <mxGeometry x="480" y="838.59" width="120" height="40" as="geometry"/>
        </mxCell>
        <mxCell id="I-6GhlOeTkknmJ2-8OJ1-46" value="李元吉" style="rounded=0;whiteSpace=wrap;html=1;fontSize=19;fillColor=#dae8fc;strokeColor=#6c8ebf;" parent="1" vertex="1">
          <mxGeometry x="1158" y="720" width="120" height="40" as="geometry"/>
        </mxCell>
        <mxCell id="I-6GhlOeTkknmJ2-8OJ1-57" value="" style="edgeStyle=elbowEdgeStyle;rounded=0;orthogonalLoop=1;jettySize=auto;elbow=vertical;html=1;endArrow=none;endFill=0;" parent="1" source="I-6GhlOeTkknmJ2-8OJ1-47" target="I-6GhlOeTkknmJ2-8OJ1-56" edge="1">
          <mxGeometry relative="1" as="geometry"/>
        </mxCell>
        <mxCell id="I-6GhlOeTkknmJ2-8OJ1-47" value="平阳公主" style="rounded=0;whiteSpace=wrap;html=1;fontSize=19;fillColor=#dae8fc;strokeColor=#6c8ebf;" parent="1" vertex="1">
          <mxGeometry x="1358" y="720" width="120" height="40" as="geometry"/>
        </mxCell>
        <mxCell id="I-6GhlOeTkknmJ2-8OJ1-56" value="柴绍" style="rounded=0;whiteSpace=wrap;html=1;fontSize=19;" parent="1" vertex="1">
          <mxGeometry x="1520" y="720" width="120" height="40" as="geometry"/>
        </mxCell>
        <mxCell id="I-6GhlOeTkknmJ2-8OJ1-70" value="&lt;font color=&quot;#ff0000&quot;&gt;隋文帝杨坚&lt;/font&gt;" style="rounded=0;whiteSpace=wrap;html=1;fontSize=19;fillColor=#d5e8d4;strokeColor=#82b366;" parent="1" vertex="1">
          <mxGeometry x="1200" y="520" width="120" height="40" as="geometry"/>
        </mxCell>
        <mxCell id="I-6GhlOeTkknmJ2-8OJ1-72" value="" style="endArrow=classic;html=1;edgeStyle=elbowEdgeStyle;elbow=vertical;rounded=0;exitX=0.5;exitY=1;exitDx=0;exitDy=0;entryX=0.5;entryY=0;entryDx=0;entryDy=0;" parent="1" source="I-6GhlOeTkknmJ2-8OJ1-28" target="I-6GhlOeTkknmJ2-8OJ1-62" edge="1">
          <mxGeometry width="50" height="50" relative="1" as="geometry">
            <mxPoint x="870.9999999999998" y="490" as="sourcePoint"/>
            <mxPoint x="950.9999999999998" y="530" as="targetPoint"/>
            <Array as="points">
              <mxPoint x="580" y="500"/>
            </Array>
          </mxGeometry>
        </mxCell>
        <mxCell id="I-6GhlOeTkknmJ2-8OJ1-75" value="" style="rounded=0;orthogonalLoop=1;jettySize=auto;elbow=vertical;html=1;endArrow=none;endFill=0;exitX=1;exitY=0.5;exitDx=0;exitDy=0;entryX=0;entryY=0.5;entryDx=0;entryDy=0;" parent="1" source="I-6GhlOeTkknmJ2-8OJ1-58" target="I-6GhlOeTkknmJ2-8OJ1-62" edge="1">
          <mxGeometry relative="1" as="geometry">
            <mxPoint x="671" y="749.8333333333335" as="sourcePoint"/>
            <mxPoint x="691" y="749.8333333333335" as="targetPoint"/>
          </mxGeometry>
        </mxCell>
        <mxCell id="I-6GhlOeTkknmJ2-8OJ1-77" value="" style="rounded=0;orthogonalLoop=1;jettySize=auto;elbow=vertical;html=1;endArrow=none;endFill=0;entryX=0;entryY=0.5;entryDx=0;entryDy=0;exitX=1;exitY=0.5;exitDx=0;exitDy=0;" parent="1" source="I-6GhlOeTkknmJ2-8OJ1-60" target="I-6GhlOeTkknmJ2-8OJ1-70" edge="1">
          <mxGeometry relative="1" as="geometry">
            <mxPoint x="671" y="749.8333333333335" as="sourcePoint"/>
            <mxPoint x="691" y="749.8333333333335" as="targetPoint"/>
          </mxGeometry>
        </mxCell>
        <mxCell id="I-6GhlOeTkknmJ2-8OJ1-80" value="" style="endArrow=classic;html=1;edgeStyle=elbowEdgeStyle;elbow=vertical;rounded=0;exitX=0.5;exitY=1;exitDx=0;exitDy=0;entryX=0.5;entryY=0;entryDx=0;entryDy=0;" parent="1" source="I-6GhlOeTkknmJ2-8OJ1-34" target="I-6GhlOeTkknmJ2-8OJ1-38" edge="1">
          <mxGeometry width="50" height="50" relative="1" as="geometry">
            <mxPoint x="730" y="660" as="sourcePoint"/>
            <mxPoint x="972" y="700" as="targetPoint"/>
          </mxGeometry>
        </mxCell>
        <mxCell id="I-6GhlOeTkknmJ2-8OJ1-81" value="" style="endArrow=classic;html=1;edgeStyle=elbowEdgeStyle;elbow=vertical;rounded=0;exitX=0.5;exitY=1;exitDx=0;exitDy=0;entryX=0.5;entryY=0;entryDx=0;entryDy=0;" parent="1" source="I-6GhlOeTkknmJ2-8OJ1-34" target="I-6GhlOeTkknmJ2-8OJ1-45" edge="1">
          <mxGeometry width="50" height="50" relative="1" as="geometry">
            <mxPoint x="711" y="650" as="sourcePoint"/>
            <mxPoint x="829" y="730" as="targetPoint"/>
          </mxGeometry>
        </mxCell>
        <mxCell id="I-6GhlOeTkknmJ2-8OJ1-82" value="" style="endArrow=classic;html=1;edgeStyle=elbowEdgeStyle;elbow=vertical;rounded=0;exitX=0.5;exitY=1;exitDx=0;exitDy=0;entryX=0.5;entryY=0;entryDx=0;entryDy=0;" parent="1" source="I-6GhlOeTkknmJ2-8OJ1-34" target="I-6GhlOeTkknmJ2-8OJ1-46" edge="1">
          <mxGeometry width="50" height="50" relative="1" as="geometry">
            <mxPoint x="711" y="650" as="sourcePoint"/>
            <mxPoint x="1028.9999999999995" y="730" as="targetPoint"/>
          </mxGeometry>
        </mxCell>
        <mxCell id="I-6GhlOeTkknmJ2-8OJ1-83" value="" style="endArrow=classic;html=1;edgeStyle=elbowEdgeStyle;elbow=vertical;rounded=0;exitX=0.5;exitY=1;exitDx=0;exitDy=0;entryX=0.5;entryY=0;entryDx=0;entryDy=0;" parent="1" source="I-6GhlOeTkknmJ2-8OJ1-34" target="I-6GhlOeTkknmJ2-8OJ1-47" edge="1">
          <mxGeometry width="50" height="50" relative="1" as="geometry">
            <mxPoint x="711" y="650" as="sourcePoint"/>
            <mxPoint x="1227.9999999999995" y="730" as="targetPoint"/>
          </mxGeometry>
        </mxCell>
        <mxCell id="I-6GhlOeTkknmJ2-8OJ1-84" value="" style="endArrow=classic;html=1;edgeStyle=elbowEdgeStyle;elbow=vertical;rounded=0;exitX=0.5;exitY=1;exitDx=0;exitDy=0;entryX=0.5;entryY=0;entryDx=0;entryDy=0;" parent="1" source="I-6GhlOeTkknmJ2-8OJ1-54" target="I-6GhlOeTkknmJ2-8OJ1-47" edge="1">
          <mxGeometry width="50" height="50" relative="1" as="geometry">
            <mxPoint x="721" y="660" as="sourcePoint"/>
            <mxPoint x="1237.9999999999995" y="740" as="targetPoint"/>
          </mxGeometry>
        </mxCell>
        <mxCell id="I-6GhlOeTkknmJ2-8OJ1-85" value="" style="endArrow=classic;html=1;edgeStyle=elbowEdgeStyle;elbow=vertical;rounded=0;exitX=0.5;exitY=1;exitDx=0;exitDy=0;entryX=0.5;entryY=0;entryDx=0;entryDy=0;" parent="1" source="I-6GhlOeTkknmJ2-8OJ1-54" target="I-6GhlOeTkknmJ2-8OJ1-46" edge="1">
          <mxGeometry width="50" height="50" relative="1" as="geometry">
            <mxPoint x="1670" y="650" as="sourcePoint"/>
            <mxPoint x="1427.9999999999995" y="730" as="targetPoint"/>
          </mxGeometry>
        </mxCell>
        <mxCell id="I-6GhlOeTkknmJ2-8OJ1-86" value="" style="endArrow=classic;html=1;edgeStyle=elbowEdgeStyle;elbow=vertical;rounded=0;exitX=0.5;exitY=1;exitDx=0;exitDy=0;entryX=0.5;entryY=0;entryDx=0;entryDy=0;" parent="1" source="I-6GhlOeTkknmJ2-8OJ1-54" target="I-6GhlOeTkknmJ2-8OJ1-45" edge="1">
          <mxGeometry width="50" height="50" relative="1" as="geometry">
            <mxPoint x="1670" y="650" as="sourcePoint"/>
            <mxPoint x="1227.9999999999995" y="730" as="targetPoint"/>
          </mxGeometry>
        </mxCell>
        <mxCell id="I-6GhlOeTkknmJ2-8OJ1-87" value="" style="endArrow=classic;html=1;edgeStyle=elbowEdgeStyle;elbow=vertical;rounded=0;exitX=0.5;exitY=1;exitDx=0;exitDy=0;entryX=0.5;entryY=0;entryDx=0;entryDy=0;" parent="1" source="I-6GhlOeTkknmJ2-8OJ1-54" target="I-6GhlOeTkknmJ2-8OJ1-38" edge="1">
          <mxGeometry width="50" height="50" relative="1" as="geometry">
            <mxPoint x="1670" y="650" as="sourcePoint"/>
            <mxPoint x="1028.9999999999995" y="730" as="targetPoint"/>
          </mxGeometry>
        </mxCell>
        <mxCell id="I-6GhlOeTkknmJ2-8OJ1-88" value="杨忠" style="rounded=0;whiteSpace=wrap;html=1;fontSize=19;fillColor=#d5e8d4;strokeColor=#82b366;" parent="1" vertex="1">
          <mxGeometry x="1200" y="440" width="120" height="40" as="geometry"/>
        </mxCell>
        <mxCell id="I-6GhlOeTkknmJ2-8OJ1-90" value="&lt;font color=&quot;#ff0000&quot;&gt;隋炀帝杨广&lt;/font&gt;" style="rounded=0;whiteSpace=wrap;html=1;fontSize=19;fillColor=#d5e8d4;strokeColor=#82b366;" parent="1" vertex="1">
          <mxGeometry x="1200" y="600" width="120" height="40" as="geometry"/>
        </mxCell>
        <mxCell id="I-6GhlOeTkknmJ2-8OJ1-92" value="" style="edgeStyle=none;rounded=0;orthogonalLoop=1;jettySize=auto;html=1;endArrow=classic;endFill=1;fontColor=#FF0000;entryX=0.5;entryY=0;entryDx=0;entryDy=0;" parent="1" target="I-6GhlOeTkknmJ2-8OJ1-90" edge="1">
          <mxGeometry relative="1" as="geometry">
            <mxPoint x="1260" y="560" as="sourcePoint"/>
            <mxPoint x="1270" y="490" as="targetPoint"/>
          </mxGeometry>
        </mxCell>
        <mxCell id="I-6GhlOeTkknmJ2-8OJ1-94" value="" style="edgeStyle=none;rounded=0;orthogonalLoop=1;jettySize=auto;html=1;endArrow=classic;endFill=1;fontColor=#FF0000;entryX=0.5;entryY=0;entryDx=0;entryDy=0;exitX=0.5;exitY=1;exitDx=0;exitDy=0;" parent="1" source="I-6GhlOeTkknmJ2-8OJ1-88" target="I-6GhlOeTkknmJ2-8OJ1-70" edge="1">
          <mxGeometry relative="1" as="geometry">
            <mxPoint x="1270" y="570" as="sourcePoint"/>
            <mxPoint x="1270" y="610" as="targetPoint"/>
          </mxGeometry>
        </mxCell>
        <mxCell id="I-6GhlOeTkknmJ2-8OJ1-98" value="&lt;font&gt;李祐&lt;br&gt;&lt;/font&gt;" style="rounded=0;whiteSpace=wrap;html=1;fontSize=19;fillColor=#dae8fc;strokeColor=#6c8ebf;fontColor=#000000;" parent="1" vertex="1">
          <mxGeometry x="639" y="838.59" width="120" height="40" as="geometry"/>
        </mxCell>
        <mxCell id="I-6GhlOeTkknmJ2-8OJ1-99" value="&lt;font&gt;李泰&lt;br&gt;&lt;/font&gt;" style="rounded=0;whiteSpace=wrap;html=1;fontSize=19;fillColor=#dae8fc;strokeColor=#6c8ebf;fontColor=#000000;" parent="1" vertex="1">
          <mxGeometry x="800" y="838.59" width="120" height="40" as="geometry"/>
        </mxCell>
        <mxCell id="I-6GhlOeTkknmJ2-8OJ1-100" value="&lt;font&gt;李治&lt;br&gt;&lt;/font&gt;" style="rounded=0;whiteSpace=wrap;html=1;fontSize=19;fillColor=#dae8fc;strokeColor=#6c8ebf;fontColor=#FF0000;" parent="1" vertex="1">
          <mxGeometry x="959" y="838.59" width="120" height="40" as="geometry"/>
        </mxCell>
        <mxCell id="I-6GhlOeTkknmJ2-8OJ1-101" value="&lt;font&gt;武则天&lt;br&gt;&lt;/font&gt;" style="rounded=0;whiteSpace=wrap;html=1;fontSize=19;fillColor=#f5f5f5;strokeColor=#666666;fontColor=#333333;" parent="1" vertex="1">
          <mxGeometry x="1160" y="838.59" width="120" height="40" as="geometry"/>
        </mxCell>
        <mxCell id="I-6GhlOeTkknmJ2-8OJ1-103" value="" style="endArrow=none;html=1;fontColor=#000000;exitX=1;exitY=0.5;exitDx=0;exitDy=0;entryX=0;entryY=0.5;entryDx=0;entryDy=0;" parent="1" source="I-6GhlOeTkknmJ2-8OJ1-100" target="I-6GhlOeTkknmJ2-8OJ1-101" edge="1">
          <mxGeometry width="50" height="50" relative="1" as="geometry">
            <mxPoint x="1070" y="960" as="sourcePoint"/>
            <mxPoint x="1120" y="910" as="targetPoint"/>
          </mxGeometry>
        </mxCell>
        <mxCell id="I-6GhlOeTkknmJ2-8OJ1-104" value="" style="endArrow=none;html=1;fontColor=#000000;exitX=0.75;exitY=1;exitDx=0;exitDy=0;entryX=0.25;entryY=0;entryDx=0;entryDy=0;edgeStyle=orthogonalEdgeStyle;rounded=0;" parent="1" source="I-6GhlOeTkknmJ2-8OJ1-45" target="I-6GhlOeTkknmJ2-8OJ1-101" edge="1">
          <mxGeometry width="50" height="50" relative="1" as="geometry">
            <mxPoint x="1088.9999999999995" y="868.5900000000001" as="sourcePoint"/>
            <mxPoint x="1170" y="868.5900000000001" as="targetPoint"/>
            <Array as="points">
              <mxPoint x="1049" y="800"/>
              <mxPoint x="1190" y="800"/>
            </Array>
          </mxGeometry>
        </mxCell>
        <mxCell id="I-6GhlOeTkknmJ2-8OJ1-105" value="" style="edgeStyle=none;rounded=0;orthogonalLoop=1;jettySize=auto;html=1;endArrow=classic;endFill=1;fontColor=#000000;entryX=0.5;entryY=0;entryDx=0;entryDy=0;exitX=0.5;exitY=1;exitDx=0;exitDy=0;" parent="1" source="I-6GhlOeTkknmJ2-8OJ1-45" target="I-6GhlOeTkknmJ2-8OJ1-100" edge="1">
          <mxGeometry relative="1" as="geometry">
            <mxPoint x="1028.9999999999995" y="770" as="sourcePoint"/>
            <mxPoint x="827" y="848.5900000000001" as="targetPoint"/>
          </mxGeometry>
        </mxCell>
        <mxCell id="I-6GhlOeTkknmJ2-8OJ1-106" value="" style="edgeStyle=orthogonalEdgeStyle;rounded=0;orthogonalLoop=1;jettySize=auto;html=1;endArrow=classic;endFill=1;fontColor=#000000;entryX=0.5;entryY=0;entryDx=0;entryDy=0;exitX=0.5;exitY=1;exitDx=0;exitDy=0;" parent="1" source="I-6GhlOeTkknmJ2-8OJ1-45" target="I-6GhlOeTkknmJ2-8OJ1-98" edge="1">
          <mxGeometry relative="1" as="geometry">
            <mxPoint x="1028.9999999999995" y="770" as="sourcePoint"/>
            <mxPoint x="827" y="848.5900000000001" as="targetPoint"/>
            <Array as="points">
              <mxPoint x="1019" y="800"/>
              <mxPoint x="699" y="800"/>
            </Array>
          </mxGeometry>
        </mxCell>
        <mxCell id="I-6GhlOeTkknmJ2-8OJ1-107" value="" style="edgeStyle=orthogonalEdgeStyle;rounded=0;orthogonalLoop=1;jettySize=auto;html=1;endArrow=classic;endFill=1;fontColor=#000000;entryX=0.5;entryY=0;entryDx=0;entryDy=0;exitX=0.5;exitY=1;exitDx=0;exitDy=0;" parent="1" source="I-6GhlOeTkknmJ2-8OJ1-45" target="I-6GhlOeTkknmJ2-8OJ1-95" edge="1">
          <mxGeometry relative="1" as="geometry">
            <mxPoint x="1029.1176470588234" y="770.1764705882354" as="sourcePoint"/>
            <mxPoint x="627.9411764705883" y="849" as="targetPoint"/>
            <Array as="points">
              <mxPoint x="1019" y="800"/>
              <mxPoint x="540" y="800"/>
            </Array>
          </mxGeometry>
        </mxCell>
        <mxCell id="I-6GhlOeTkknmJ2-8OJ1-108" value="" style="endArrow=classic;html=1;edgeStyle=elbowEdgeStyle;elbow=vertical;rounded=0;exitX=0.5;exitY=1;exitDx=0;exitDy=0;entryX=0.5;entryY=0;entryDx=0;entryDy=0;" parent="1" source="I-6GhlOeTkknmJ2-8OJ1-101" target="I-6GhlOeTkknmJ2-8OJ1-109" edge="1">
          <mxGeometry width="50" height="50" relative="1" as="geometry">
            <mxPoint x="1551" y="950" as="sourcePoint"/>
            <mxPoint x="870" y="1030" as="targetPoint"/>
            <Array as="points">
              <mxPoint x="1130" y="940"/>
            </Array>
          </mxGeometry>
        </mxCell>
        <mxCell id="I-6GhlOeTkknmJ2-8OJ1-109" value="&lt;font&gt;李显&lt;br&gt;&lt;/font&gt;" style="rounded=0;whiteSpace=wrap;html=1;fontSize=19;fillColor=#dae8fc;strokeColor=#6c8ebf;fontColor=#FF0000;" parent="1" vertex="1">
          <mxGeometry x="979.12" y="1000" width="120" height="40" as="geometry"/>
        </mxCell>
        <mxCell id="I-6GhlOeTkknmJ2-8OJ1-110" value="&lt;font&gt;李旦&lt;br&gt;&lt;/font&gt;" style="rounded=0;whiteSpace=wrap;html=1;fontSize=19;fillColor=#dae8fc;strokeColor=#6c8ebf;fontColor=#FF0000;" parent="1" vertex="1">
          <mxGeometry x="1140" y="1000" width="120" height="40" as="geometry"/>
        </mxCell>
        <mxCell id="I-6GhlOeTkknmJ2-8OJ1-111" value="" style="endArrow=classic;html=1;edgeStyle=elbowEdgeStyle;elbow=vertical;rounded=0;exitX=0.5;exitY=1;exitDx=0;exitDy=0;entryX=0.5;entryY=0;entryDx=0;entryDy=0;" parent="1" source="I-6GhlOeTkknmJ2-8OJ1-101" target="I-6GhlOeTkknmJ2-8OJ1-110" edge="1">
          <mxGeometry width="50" height="50" relative="1" as="geometry">
            <mxPoint x="1230" y="888.5900000000001" as="sourcePoint"/>
            <mxPoint x="1028.9999999999995" y="1010" as="targetPoint"/>
            <Array as="points">
              <mxPoint x="1210" y="940"/>
            </Array>
          </mxGeometry>
        </mxCell>
        <mxCell id="I-6GhlOeTkknmJ2-8OJ1-112" value="" style="endArrow=classic;html=1;edgeStyle=elbowEdgeStyle;elbow=vertical;rounded=0;entryX=0.5;entryY=0;entryDx=0;entryDy=0;" parent="1" target="I-6GhlOeTkknmJ2-8OJ1-109" edge="1">
          <mxGeometry width="50" height="50" relative="1" as="geometry">
            <mxPoint x="1019" y="880" as="sourcePoint"/>
            <mxPoint x="1230" y="1010" as="targetPoint"/>
            <Array as="points">
              <mxPoint x="1230" y="940"/>
            </Array>
          </mxGeometry>
        </mxCell>
      </root>
    </mxGraphModel>
  </diagram>
</mxfile>
